<svg width="24" height="24" viewBox="0 0 24 24" fill="none" xmlns="http://www.w3.org/2000/svg">
<g id="fluent:my-location-20-regular">
<path id="Vector" d="M11.9999 15.5999C12.9547 15.5999 13.8704 15.2206 14.5455 14.5455C15.2206 13.8704 15.5999 12.9547 15.5999 11.9999C15.5999 11.0451 15.2206 10.1294 14.5455 9.45432C13.8704 8.77919 12.9547 8.3999 11.9999 8.3999C11.0451 8.3999 10.1294 8.77919 9.45432 9.45432C8.77919 10.1294 8.3999 11.0451 8.3999 11.9999C8.3999 12.9547 8.77919 13.8704 9.45432 14.5455C10.1294 15.2206 11.0451 15.5999 11.9999 15.5999ZM12.5999 2.9999C12.5999 2.84077 12.5367 2.68816 12.4242 2.57564C12.3116 2.46312 12.159 2.3999 11.9999 2.3999C11.8408 2.3999 11.6882 2.46312 11.5756 2.57564C11.4631 2.68816 11.3999 2.84077 11.3999 2.9999V4.8239C9.70332 4.96579 8.11188 5.70418 6.90803 6.90803C5.70418 8.11188 4.96579 9.70332 4.8239 11.3999H2.9999C2.84077 11.3999 2.68816 11.4631 2.57564 11.5756C2.46312 11.6882 2.3999 11.8408 2.3999 11.9999C2.3999 12.159 2.46312 12.3116 2.57564 12.4242C2.68816 12.5367 2.84077 12.5999 2.9999 12.5999H4.8239C4.96579 14.2965 5.70418 15.8879 6.90803 17.0918C8.11188 18.2956 9.70332 19.034 11.3999 19.1759V20.9999C11.3999 21.159 11.4631 21.3116 11.5756 21.4242C11.6882 21.5367 11.8408 21.5999 11.9999 21.5999C12.159 21.5999 12.3116 21.5367 12.4242 21.4242C12.5367 21.3116 12.5999 21.159 12.5999 20.9999V19.1759C14.2964 19.0338 15.8877 18.2953 17.0915 17.0915C18.2953 15.8877 19.0338 14.2964 19.1759 12.5999H20.9999C21.159 12.5999 21.3116 12.5367 21.4242 12.4242C21.5367 12.3116 21.5999 12.159 21.5999 11.9999C21.5999 11.8408 21.5367 11.6882 21.4242 11.5756C21.3116 11.4631 21.159 11.3999 20.9999 11.3999H19.1759C19.034 9.70332 18.2956 8.11188 17.0918 6.90803C15.8879 5.70418 14.2965 4.96579 12.5999 4.8239V2.9999ZM11.9999 17.9999C10.4086 17.9999 8.88248 17.3678 7.75726 16.2425C6.63204 15.1173 5.9999 13.5912 5.9999 11.9999C5.9999 10.4086 6.63204 8.88248 7.75726 7.75726C8.88248 6.63204 10.4086 5.9999 11.9999 5.9999C13.5912 5.9999 15.1173 6.63204 16.2425 7.75726C17.3678 8.88248 17.9999 10.4086 17.9999 11.9999C17.9999 13.5912 17.3678 15.1173 16.2425 16.2425C15.1173 17.3678 13.5912 17.9999 11.9999 17.9999Z" fill="#888888"/>
</g>
</svg>
